HIERARCHY
ROOT Hips
{
  OFFSET 5.84602e-005 68.8428 3.50346
  CHANNELS 6 Xposition Yposition Zposition Zrotation Xrotation Yrotation
  JOINT Spine
  {
    OFFSET 0 8.597 -4.6522
    CHANNELS 3 Zrotation Xrotation Yrotation
    JOINT Spine1
    {
      OFFSET 0 7.8454 0.4098
      CHANNELS 3 Zrotation Xrotation Yrotation
      JOINT Spine2
      {
        OFFSET 0 9.7078 -2.1609
        CHANNELS 3 Zrotation Xrotation Yrotation
        JOINT Neck
        {
          OFFSET 0 21.8761 -0.4549
          CHANNELS 3 Zrotation Xrotation Yrotation
          JOINT Head
          {
            OFFSET 0 12.3537 3.3602
            CHANNELS 3 Zrotation Xrotation Yrotation
            End Site
            {
              OFFSET 0.0001 18.9506 0.5657
            }
          }
        }
        JOINT LeftShoulder
        {
          OFFSET 2.2086 21.1115 7.2329
          CHANNELS 3 Zrotation Xrotation Yrotation
          JOINT LeftArm
          {
            OFFSET 13.1193 3.0282 -4.8998
            CHANNELS 3 Zrotation Xrotation Yrotation
            JOINT LeftForeArm
            {
              OFFSET 27.4081 -0.0973053 -0.2375
              CHANNELS 3 Zrotation Xrotation Yrotation
              JOINT LeftHand
              {
                OFFSET 22.8641 0.0662994 -0.1369
                CHANNELS 3 Zrotation Xrotation Yrotation
                JOINT LeftHandIndex1
                {
                  OFFSET 8.8614 0.775009 2.4612
                  CHANNELS 3 Zrotation Xrotation Yrotation
                  JOINT LeftHandIndex2
                  {
                    OFFSET 3.3146 -0.808304 0.5841
                    CHANNELS 3 Zrotation Xrotation Yrotation
                    JOINT LeftHandIndex3
                    {
                      OFFSET 2.2628 -0.552002 0.3989
                      CHANNELS 3 Zrotation Xrotation Yrotation
                      End Site
                      {
                        OFFSET 1.6102 -0.4807 0.2612
                      }
                    }
                  }
                }
                JOINT LeftHandMiddle1
                {
                  OFFSET 8.9937 0.895004 0.2143
                  CHANNELS 3 Zrotation Xrotation Yrotation
                  JOINT LeftHandMiddle2
                  {
                    OFFSET 4.0984 0.0113983 -0.0242
                    CHANNELS 3 Zrotation Xrotation Yrotation
                    JOINT LeftHandMiddle3
                    {
                      OFFSET 2.2716 0.00689697 -0.0138001
                      CHANNELS 3 Zrotation Xrotation Yrotation
                      End Site
                      {
                        OFFSET 2.0404 -0.1441 0.0027
                      }
                    }
                  }
                }
                JOINT LeftHandRing1
                {
                  OFFSET 8.5234 0.597198 -2.0164
                  CHANNELS 3 Zrotation Xrotation Yrotation
                  JOINT LeftHandRing2
                  {
                    OFFSET 3.7188 -0.188293 -0.2328
                    CHANNELS 3 Zrotation Xrotation Yrotation
                    JOINT LeftHandRing3
                    {
                      OFFSET 2.1191 -0.106598 -0.1332
                      CHANNELS 3 Zrotation Xrotation Yrotation
                      End Site
                      {
                        OFFSET 1.8737 -0.2304 -0.0886
                      }
                    }
                  }
                }
                JOINT LeftHandPinky1
                {
                  OFFSET 7.9094 -0.601089 -3.4825
                  CHANNELS 3 Zrotation Xrotation Yrotation
                  JOINT LeftHandPinky2
                  {
                    OFFSET 2.2874 -0.477005 -0.6314
                    CHANNELS 3 Zrotation Xrotation Yrotation
                    JOINT LeftHandPinky3
                    {
                      OFFSET 1.6774 -0.349396 -0.4633
                      CHANNELS 3 Zrotation Xrotation Yrotation
                      End Site
                      {
                        OFFSET 1.4888 -0.4091 -0.3416
                      }
                    }
                  }
                }
                JOINT LeftHandThumb1
                {
                  OFFSET 1.833 -1.3875 1.3896
                  CHANNELS 3 Zrotation Xrotation Yrotation
                  JOINT LeftHandThumb2
                  {
                    OFFSET 3.4129 -1.121 2.5732
                    CHANNELS 3 Zrotation Xrotation Yrotation
                    JOINT LeftHandThumb3
                    {
                      OFFSET 2.2474 -0.804199 1.6192
                      CHANNELS 3 Zrotation Xrotation Yrotation
                      End Site
                      {
                        OFFSET 1.6527 -0.5689 1.1317
                      }
                    }
                  }
                }
              }
            }
          }
        }
        JOINT RightShoulder
        {
          OFFSET -2.2086 21.1115 7.2329
          CHANNELS 3 Zrotation Xrotation Yrotation
          JOINT RightArm
          {
            OFFSET -13.1216 3.0287 -4.9007
            CHANNELS 3 Zrotation Xrotation Yrotation
            JOINT RightForeArm
            {
              OFFSET -27.4081 -0.0973053 -0.2375
              CHANNELS 3 Zrotation Xrotation Yrotation
              JOINT RightHand
              {
                OFFSET -22.8641 0.0664063 -0.1369
                CHANNELS 3 Zrotation Xrotation Yrotation
                JOINT RightHandIndex1
                {
                  OFFSET -8.8614 0.774994 2.4612
                  CHANNELS 3 Zrotation Xrotation Yrotation
                  JOINT RightHandIndex2
                  {
                    OFFSET -3.3146 -0.808304 0.5841
                    CHANNELS 3 Zrotation Xrotation Yrotation
                    JOINT RightHandIndex3
                    {
                      OFFSET -2.2628 -0.552002 0.3989
                      CHANNELS 3 Zrotation Xrotation Yrotation
                      End Site
                      {
                        OFFSET -1.6102 -0.4807 0.2612
                      }
                    }
                  }
                }
                JOINT RightHandMiddle1
                {
                  OFFSET -8.9937 0.894989 0.2143
                  CHANNELS 3 Zrotation Xrotation Yrotation
                  JOINT RightHandMiddle2
                  {
                    OFFSET -4.0984 0.0113983 -0.0242
                    CHANNELS 3 Zrotation Xrotation Yrotation
                    JOINT RightHandMiddle3
                    {
                      OFFSET -2.2716 0.00691223 -0.0138001
                      CHANNELS 3 Zrotation Xrotation Yrotation
                      End Site
                      {
                        OFFSET -2.0404 -0.1441 0.0027
                      }
                    }
                  }
                }
                JOINT RightHandRing1
                {
                  OFFSET -8.5234 0.597198 -2.0164
                  CHANNELS 3 Zrotation Xrotation Yrotation
                  JOINT RightHandRing2
                  {
                    OFFSET -3.7188 -0.188309 -0.2328
                    CHANNELS 3 Zrotation Xrotation Yrotation
                    JOINT RightHandRing3
                    {
                      OFFSET -2.1191 -0.106598 -0.1332
                      CHANNELS 3 Zrotation Xrotation Yrotation
                      End Site
                      {
                        OFFSET -1.8737 -0.2304 -0.0886
                      }
                    }
                  }
                }
                JOINT RightHandPinky1
                {
                  OFFSET -7.9094 -0.601105 -3.4825
                  CHANNELS 3 Zrotation Xrotation Yrotation
                  JOINT RightHandPinky2
                  {
                    OFFSET -2.2874 -0.477005 -0.6314
                    CHANNELS 3 Zrotation Xrotation Yrotation
                    JOINT RightHandPinky3
                    {
                      OFFSET -1.6774 -0.349396 -0.4633
                      CHANNELS 3 Zrotation Xrotation Yrotation
                      End Site
                      {
                        OFFSET -1.4888 -0.4091 -0.3416
                      }
                    }
                  }
                }
                JOINT RightHandThumb1
                {
                  OFFSET -1.833 -1.38751 1.3896
                  CHANNELS 3 Zrotation Xrotation Yrotation
                  JOINT RightHandThumb2
                  {
                    OFFSET -3.41299 -1.12099 2.5732
                    CHANNELS 3 Zrotation Xrotation Yrotation
                    JOINT RightHandThumb3
                    {
                      OFFSET -2.24741 -0.804108 1.6192
                      CHANNELS 3 Zrotation Xrotation Yrotation
                      End Site
                      {
                        OFFSET -1.6527 -0.5689 1.1317
                      }
                    }
                  }
                }
              }
            }
          }
        }
      }
    }
  }
  JOINT RightUpLeg
  {
    OFFSET -9.1966 3.8861 -0.7581
    CHANNELS 3 Zrotation Xrotation Yrotation
    JOINT RightLeg
    {
      OFFSET -0.7359 -41.0265 0
      CHANNELS 3 Zrotation Xrotation Yrotation
      JOINT RightFoot
      {
        OFFSET 0 -40.2855 0
        CHANNELS 3 Zrotation Xrotation Yrotation
        JOINT RightToeBase
        {
          OFFSET 0 -5.6122 11.7359
          CHANNELS 3 Zrotation Xrotation Yrotation
          End Site
          {
            OFFSET 0 0 7.8731
          }
        }
      }
    }
  }
  JOINT LeftUpLeg
  {
    OFFSET 9.1965 3.8864 -0.7581
    CHANNELS 3 Zrotation Xrotation Yrotation
    JOINT LeftLeg
    {
      OFFSET 0.7359 -41.0268 0
      CHANNELS 3 Zrotation Xrotation Yrotation
      JOINT LeftFoot
      {
        OFFSET 0 -40.2855 0
        CHANNELS 3 Zrotation Xrotation Yrotation
        JOINT LeftToeBase
        {
          OFFSET 0 -5.6122 11.7359
          CHANNELS 3 Zrotation Xrotation Yrotation
          End Site
          {
            OFFSET 0 0 7.8731
          }
        }
      }
    }
  }
}
MOTION
Frames:	5
Frame Time:	0.0333333
-2.36871 2.70913 6.69637 -90.0327 -88.9027 -140.032 -9.26811 3.95928 -3.41318 -18.3575 8.41185 -6.16528 -18.3575 8.41182 -6.16528 -15.2988 -37.9967 -25.5586 15.6288 -26.1366 -18.9768 -16.0211 13.4241 -24.3774 19.6385 -34.72 34.8881 8.35701 2.00356 -40.9378 -29.6461 -54.4688 -36.0554 -1.09812e-006 8.80783e-007 3.80577e-008 1.05934e-030 9.54166e-015 -6.36111e-015 1.09812e-006 -8.80783e-007 -3.80577e-008 -1.09812e-006 8.80783e-007 3.80577e-008 -0.0146166 -9.05481e-005 -4.75573e-007 1.09612e-006 -8.8079e-007 -3.81709e-008 -1.09812e-006 8.80783e-007 3.80577e-008 -0.0187231 -0.00117396 5.59589e-005 -4.77083e-015 -6.36111e-015 -3.18055e-015 -1.09812e-006 8.80783e-007 3.80577e-008 -0.012304 -0.003257 0.000677175 3.18055e-015 6.36111e-015 9.54166e-015 -1.09812e-006 8.80783e-007 3.80577e-008 1.05934e-030 9.54166e-015 -6.36111e-015 1.09812e-006 -8.80783e-007 -3.80577e-008 1.92171 3.62322 -33.2911 -3.70691 31.3735 30.5881 -42.0136 -24.35 46.5259 4.73126 10.0567 3.10188 -5.94234e-008 -7.53208e-009 3.97929e-009 -6.67568e-008 4.43549e-007 8.61846e-007 -3.3013e-008 -4.18449e-009 2.21071e-009 -5.94234e-008 -7.53208e-009 3.97929e-009 0.0149995 -8.98542e-005 1.99839e-006 -3.3013e-008 -4.1842e-009 2.21129e-009 -5.94234e-008 -7.53208e-009 3.97929e-009 0.0189978 -0.00119231 -5.7536e-005 -3.3013e-008 -4.18414e-009 2.21174e-009 -5.94234e-008 -7.53208e-009 3.97929e-009 0.0122805 -0.00325116 -0.000674415 -3.30129e-008 -4.18444e-009 2.2121e-009 -5.94234e-008 -7.53208e-009 3.97929e-009 -6.67568e-008 4.43549e-007 8.61846e-007 -3.3013e-008 -4.18449e-009 2.21071e-009 -65.491 -59.5953 -56.3862 -10.798 73.5262 7.66509 13.251 10.515 -3.45758 -1.19271e-015 7.95139e-016 1.73688e-014 78.5314 -46.6622 110.486 -6.9534 0.0555336 0.811457 10.501 10.3547 -9.90192 4.13333e-007 -7.34209e-008 7.40547e-008 
-2.45922 2.70848 6.66033 -90.0376 -88.1719 -140.037 -9.22475 4.1726 -3.37652 -18.2681 8.82773 -6.06308 -18.2681 8.82773 -6.06311 -15.2988 -37.9963 -25.5585 15.6288 -26.1366 -18.9768 -16.0211 13.4241 -24.3774 18.8118 -33.7111 34.4548 8.38161 1.89719 -41.6608 -29.6461 -54.4688 -36.0554 -1.59028e-015 9.54166e-015 -3.18055e-015 3.18055e-015 6.36111e-015 3.18055e-015 1.59028e-015 6.36111e-015 -0 -1.59028e-015 9.54166e-015 -3.18055e-015 -0.0145919 -9.14902e-005 -8.12268e-007 -3.18055e-015 6.36111e-015 -0 -1.59028e-015 9.54166e-015 -3.18055e-015 -0.0187731 -0.00117697 5.95084e-005 3.18055e-015 3.18055e-015 -3.18055e-015 -1.59028e-015 9.54166e-015 -3.18055e-015 -0.0122762 -0.00325221 0.000678542 9.54166e-015 -3.18055e-015 -0 -1.59028e-015 9.54166e-015 -3.18055e-015 3.18055e-015 6.36111e-015 3.18055e-015 1.59028e-015 6.36111e-015 -0 2.03384 3.66428 -33.1602 -3.70691 31.3735 30.5881 -41.8688 -24.2078 46.3052 4.21294 9.6803 3.14969 1.18849e-007 1.50253e-008 -7.99635e-009 3.96164e-008 5.00843e-009 -2.66545e-009 3.96164e-008 5.00843e-009 -2.66545e-009 1.18849e-007 1.50253e-008 -7.99635e-009 0.0149925 -9.1789e-005 2.91419e-007 3.96164e-008 5.00808e-009 -2.66613e-009 1.18849e-007 1.50253e-008 -7.99635e-009 0.0189892 -0.00119017 -5.78712e-005 3.96164e-008 5.00801e-009 -2.66669e-009 1.18849e-007 1.50253e-008 -7.99635e-009 0.0122698 -0.0032487 -0.000670744 3.96163e-008 5.00837e-009 -2.66711e-009 1.18849e-007 1.50253e-008 -7.99635e-009 3.96164e-008 5.00843e-009 -2.66545e-009 3.96164e-008 5.00843e-009 -2.66545e-009 -63.7912 -59.3768 -54.9369 -10.5756 73.3873 7.4658 13.3451 10.4795 -3.61495 -2.87257e-007 5.62919e-007 1.0707e-006 78.5512 -46.5691 110.606 -6.95339 -1.04632e-006 0.806446 10.6091 10.2863 -10.638 -2.93759e-007 -9.09205e-008 1.65346e-006 
-2.54937 2.70781 6.62307 -90.0399 -87.4404 -140.039 -9.18115 4.38587 -3.33891 -18.1789 9.24347 -5.95938 -18.1789 9.24346 -5.95937 -15.2988 -37.9965 -25.5585 15.6288 -26.1366 -18.9768 -16.021 13.4241 -24.3774 18.0015 -32.6943 34.0426 8.40489 1.79041 -42.3846 -29.6461 -54.4688 -36.0554 9.72219e-007 1.88023e-006 7.15775e-007 -8.0986e-007 -3.66223e-006 1.90556e-007 3.29107e-006 4.36313e-007 5.51769e-007 9.72219e-007 1.88023e-006 7.15775e-007 -0.0145675 -8.94207e-005 -9.87142e-007 3.2913e-006 4.36244e-007 5.51822e-007 9.72219e-007 1.88023e-006 7.15775e-007 -0.0187337 -0.00117976 5.81853e-005 3.29137e-006 4.3624e-007 5.51805e-007 9.72219e-007 1.88023e-006 7.15775e-007 -0.0122392 -0.00324328 0.000676273 3.29128e-006 4.36286e-007 5.51712e-007 9.72219e-007 1.88023e-006 7.15775e-007 -8.0986e-007 -3.66223e-006 1.90556e-007 3.29107e-006 4.36313e-007 5.51769e-007 2.14591 3.70558 -33.0293 -3.70691 31.3735 30.5881 -41.7236 -24.066 46.0843 3.6951 9.30317 3.19404 8.87711e-009 -6.89985e-008 -1.51252e-008 -1.98085e-008 -2.49802e-009 1.33935e-009 -2.20828e-008 6.73331e-008 1.60181e-008 8.87711e-009 -6.89985e-008 -1.51252e-008 0.0149965 -9.16771e-005 1.88292e-006 -2.38879e-008 6.73462e-008 1.60091e-008 8.87711e-009 -6.89985e-008 -1.51252e-008 0.018991 -0.00119143 -5.90834e-005 -1.32057e-008 -1.66521e-009 8.93303e-010 8.87711e-009 -6.89985e-008 -1.51252e-008 0.0122689 -0.00324731 -0.000676326 -1.32057e-008 -1.66532e-009 8.93443e-010 8.87711e-009 -6.89985e-008 -1.51252e-008 -1.98085e-008 -2.49802e-009 1.33935e-009 -2.20828e-008 6.73331e-008 1.60181e-008 -62.1114 -59.1365 -53.5084 -10.3568 73.2486 7.27008 13.4389 10.4434 -3.77219 2.12087e-007 -6.89663e-008 -3.6692e-006 78.6455 -46.4564 110.783 -6.95341 0.0555333 0.810342 10.7142 10.1605 -11.369 -1.22083e-007 1.65415e-007 -1.72642e-006 
-2.63912 2.70712 6.5846 -90.0409 -86.7081 -140.04 -9.13737 4.59902 -3.30039 -18.09 9.65898 -5.85408 -18.09 9.659 -5.85409 -15.2989 -37.9963 -25.5585 15.6288 -26.1366 -18.9768 -16.021 13.4241 -24.3775 17.2067 -31.6701 33.651 8.42684 1.68324 -43.1089 -29.6461 -54.4688 -36.0554 -2.43201e-006 1.51607e-006 2.46299e-007 -2.18997e-007 -3.93133e-007 -7.18867e-007 2.18997e-007 3.93133e-007 7.18867e-007 -2.43201e-006 1.51607e-006 2.46299e-007 -0.0146364 -8.77447e-005 -6.07252e-009 2.19011e-007 3.93041e-007 7.18917e-007 -2.43201e-006 1.51607e-006 2.46299e-007 -0.0187928 -0.00117547 5.94156e-005 2.19021e-007 3.93016e-007 7.18929e-007 -2.43201e-006 1.51607e-006 2.46299e-007 -0.0122845 -0.00324783 0.000677122 2.19031e-007 3.93057e-007 7.18902e-007 -2.43201e-006 1.51607e-006 2.46299e-007 -2.18997e-007 -3.93133e-007 -7.18867e-007 2.18997e-007 3.93133e-007 7.18867e-007 2.25789 3.74713 -32.8985 -3.7069 31.3735 30.5881 -41.578 -23.9248 45.8633 3.17774 8.92538 3.23492 -3.30147e-008 -4.15349e-009 2.2438e-009 -9.24412e-008 -1.16298e-008 6.28263e-009 1.98088e-008 2.49209e-009 -1.34628e-009 -3.30147e-008 -4.15349e-009 2.2438e-009 0.0149937 -9.12801e-005 -3.07844e-006 1.98088e-008 2.49192e-009 -1.34662e-009 -3.30147e-008 -4.15349e-009 2.2438e-009 0.0189883 -0.00119057 -6.02868e-005 1.98088e-008 2.49188e-009 -1.3469e-009 -3.30147e-008 -4.15349e-009 2.2438e-009 0.012263 -0.00324652 -0.000675758 8.46875e-009 7.65922e-008 9.79681e-009 -3.30147e-008 -4.15349e-009 2.2438e-009 -9.24412e-008 -1.16298e-008 6.28263e-009 1.98088e-008 2.49209e-009 -1.34628e-009 -60.4533 -58.8747 -52.1024 -10.1416 73.1098 7.07789 13.5326 10.4069 -3.92935 -7.95139e-016 1.59028e-015 7.45443e-017 78.7019 -46.3531 110.931 -6.9534 0.0555315 0.809712 10.819 10.0613 -12.1029 -3.53113e-031 6.36111e-015 3.18055e-015 
-2.72847 2.70642 6.54491 -90.0414 -85.9753 -140.041 -9.0934 4.81206 -3.26092 -18.0014 10.0743 -5.74725 -18.0014 10.0743 -5.74724 -15.2988 -37.9963 -25.5585 15.6288 -26.1366 -18.9768 -16.021 13.4241 -24.3774 16.4267 -30.6389 33.2792 8.44744 1.57574 -43.8337 -29.6461 -54.4688 -36.0554 7.95139e-015 0 9.54166e-015 1.59028e-015 0 1.27222e-014 1.59028e-015 3.18055e-015 9.54166e-015 7.95139e-015 0 9.54166e-015 -0.014614 -8.77641e-005 1.79819e-006 -3.18055e-015 3.18055e-015 -0 7.95139e-015 0 9.54166e-015 -0.0187729 -0.00117255 5.50119e-005 2.86992e-007 -5.5044e-007 4.31591e-007 7.95139e-015 0 9.54166e-015 -0.0122325 -0.00324022 0.000672038 -0 0 3.18055e-015 7.95139e-015 0 9.54166e-015 1.59028e-015 0 1.27222e-014 1.59028e-015 3.18055e-015 9.54166e-015 2.36977 3.78898 -32.7678 -3.7069 31.3735 30.5881 -41.4318 -23.784 45.642 2.66084 8.54701 3.27233 -3.30151e-008 -4.14407e-009 2.25588e-009 5.94271e-008 7.45933e-009 -4.06059e-009 -1.9809e-008 -2.48644e-009 1.35353e-009 -3.30151e-008 -4.14407e-009 2.25588e-009 0.0149842 -9.16298e-005 -2.69798e-006 -2.60663e-008 7.69651e-008 8.11303e-009 -3.30151e-008 -4.14407e-009 2.25588e-009 0.0190122 -0.00119212 -6.17964e-005 -2.65511e-008 7.70979e-008 8.11769e-009 -3.30151e-008 -4.14407e-009 2.25588e-009 0.0122804 -0.00324941 -0.000679378 -1.9809e-008 -2.48641e-009 1.35435e-009 -3.30151e-008 -4.14407e-009 2.25588e-009 5.94271e-008 7.45933e-009 -4.06059e-009 -1.9809e-008 -2.48644e-009 1.35353e-009 -58.8185 -58.592 -50.7208 -9.92987 72.9711 6.88923 13.6261 10.3698 -4.08639 2.15217e-006 1.46206e-006 -5.39973e-006 78.7716 -46.2458 111.089 -6.95341 0.0760604 0.810703 10.9221 9.95041 -12.8359 -1.26978e-007 1.66626e-007 -1.72544e-006 
